<svg t="1568786970891" class="icon" viewBox="0 0 1024 1024" version="1.1" xmlns="http://www.w3.org/2000/svg" p-id="3291" height="200" width="200"><path d="M436 558.6c-3.8 0-7.7-1.5-10.6-4.4-5.9-5.9-5.9-15.4 0-21.2 24.8-24.8 24.8-65.2 0-90l-9.8-9.8c-18.3-18.3-28-42.5-27.4-68.3 0.6-25.8 11.4-49.6 30.5-67l27.4-25c6.1-5.6 15.6-5.1 21.2 1s5.1 15.6-1 21.2l-27.4 25c-13 11.8-20.3 28-20.7 45.5-0.4 17.5 6.2 34 18.6 46.4l9.8 9.8c36.5 36.5 36.5 95.9 0 132.4-2.9 2.9-6.8 4.4-10.6 4.4zM328.6 558.6c-3.8 0-7.7-1.5-10.6-4.4-5.9-5.9-5.9-15.4 0-21.2 24.8-24.8 24.8-65.2 0-90l-9.8-9.8c-18.3-18.3-28-42.5-27.4-68.3 0.6-25.8 11.4-49.6 30.5-67 6.1-5.6 15.6-5.1 21.2 1s5.1 15.6-1 21.2c-13 11.8-20.3 28-20.7 45.5s6.2 34 18.6 46.4l9.8 9.8c36.5 36.5 36.5 95.9 0 132.4-2.9 2.9-6.7 4.4-10.6 4.4zM540.1 558.6c-3.8 0-7.7-1.5-10.6-4.4-5.9-5.9-5.9-15.4 0-21.2 12-12 18.6-28 18.6-45s-6.6-33-18.6-45l-9.8-9.8c-18.3-18.3-28-42.5-27.4-68.3 0.6-25.8 11.4-49.6 30.5-67l52.1-47.5c6.1-5.6 15.6-5.1 21.2 1s5.1 15.6-1 21.2L543 320c-13 11.8-20.3 28-20.7 45.5-0.4 17.5 6.2 34 18.6 46.4l9.8 9.8c17.7 17.7 27.4 41.2 27.4 66.2s-9.7 48.5-27.4 66.2c-2.9 3-6.7 4.5-10.6 4.5z" fill="#53BFC1" p-id="3292"></path><path d="M229 325.1c-7.2 0-13.6-5.2-14.8-12.6-1.3-8.2 4.2-15.9 12.4-17.2l652.9-105.4c8.2-1.3 15.9 4.2 17.2 12.4 1.3 8.2-4.2 15.9-12.4 17.2L231.5 324.9c-0.9 0.2-1.7 0.2-2.5 0.2zM515.1 389.7c-8.1 0-14.8-6.5-15-14.6-0.2-8.3 6.3-15.2 14.6-15.4l362.4-9.5h0.4c8.1 0 14.8 6.5 15 14.6 0.2 8.3-6.3 15.2-14.6 15.4l-362.4 9.5h-0.4zM240.7 396.9c-8.1 0-14.8-6.5-15-14.6-0.2-8.3 6.3-15.2 14.6-15.4l52.4-1.4h0.4c8.1 0 14.8 6.5 15 14.6 0.2 8.3-6.3 15.2-14.6 15.4l-52.4 1.4h-0.4z" fill="#53BFC1" p-id="3293"></path><path d="M821.3 643.9H194c-8.3 0-15-6.7-15-15s6.7-15 15-15h627.4c8.3 0 15 6.7 15 15s-6.8 15-15.1 15z" fill="#53BFC1" p-id="3294"></path><path d="M570.7 853.7H445.4c-70.9 0-137.9-27.3-188.7-76.7-51-49.7-79.6-116-80.7-186.7V548c0-8.3 6.7-15 15-15h634c8.3 0 15 6.7 15 15V590.3c-1.1 70.7-29.7 137-80.6 186.7-50.8 49.4-117.8 76.7-188.7 76.7zM206 563V589.8c1.9 129 109.3 233.9 239.3 233.9h125.3c130 0 237.4-104.9 239.3-233.9V563H206z" fill="#53BFC1" p-id="3295"></path></svg>